# xmcd CD database file
#
# Track frame offsets:
#	150
#	14737
#	29603
#	41646
#	55269
#	70279
#	80066
#	94945
#	106397
#	120050
#	133478
#	146505
#	162585
#	176991
#	194898
#	208479
#	221777
#	235961
#	251139
#	264856
#	277855
#	292279
#	307518
#
# Disc length: 4277 seconds
#
# Revision: 0
# Processed by: cddbd v1.5.2PL0 Copyright (c) Steve Scherf et al.
# Submitted via: CDex 1.77
#
DISCID=7510b317
DTITLE=Various Artist - Sophisticated Lady
DYEAR=2010
DGENRE=Jazz
TTITLE0=Artie Shaw - Begin The Beguine
TTITLE1=Benny Goodman - Stompin At The Savoy
TTITLE2=Fred Astaire - Top Hat White Tie And Tails
TTITLE3=Lew Stone - The Continental
TTITLE4=Paul Whiteman - I Get A Kick Out Of You
TTITLE5=Fred Astaire - Puttin On The Ritz
TTITLE6=Chick Webb with Ella Fitzgerald - Undecided
TTITLE7=Rex Stewart - Tea And Trumpets
TTITLE8=Nat Gonella - Oh Lady Be Good
TTITLE9=Jack Hylton - Happy Feet
TTITLE10=Lew Stone - I Wont Dance
TTITLE11=Jack Hylton - If I Had A Talking Picture Of You
TTITLE12=Cab Calloway - Minnie The Moocher
TTITLE13=Fats Waller - Aint Misbehavin
TTITLE14=Duke Ellington - Day Dream
TTITLE15=Carrol Gibbons - Theres A Small Hotel
TTITLE16=Fred Astaire - The Way You Look Tonight
TTITLE17=Al Bowlly - Love Is The Sweetest Thing
TTITLE18=Cole Porter - Anything Goes
TTITLE19=Duke Ellington - Digga Digga Doo
TTITLE20=Fred Rich - I Got Rhythm
TTITLE21=The Savoy Havana Band - Pasadena
TTITLE22=Louis Armstrong - All Of Me
EXTD=YEAR: 2010
EXTT0=
EXTT1=
EXTT2=
EXTT3=
EXTT4=
EXTT5=
EXTT6=
EXTT7=
EXTT8=
EXTT9=
EXTT10=
EXTT11=
EXTT12=
EXTT13=
EXTT14=
EXTT15=
EXTT16=
EXTT17=
EXTT18=
EXTT19=
EXTT20=
EXTT21=
EXTT22=
PLAYORDER=
